<svg xmlns="http://www.w3.org/2000/svg" version="1.1" xmlns:xlink="http://www.w3.org/1999/xlink" xmlns:svgjs="http://svgjs.dev/svgjs" width="128" height="128" viewBox="0 0 128 128"><g transform="matrix(0.8046875,0,0,0.8046875,12.760752631578946,26.766331725)"><svg viewBox="0 0 95 69" data-background-color="#ffffff" preserveAspectRatio="xMidYMid meet" height="92" width="128" xmlns="http://www.w3.org/2000/svg" xmlns:xlink="http://www.w3.org/1999/xlink"><g id="tight-bounds" transform="matrix(1,0,0,1,-0.24049999999999727,0.20322480000000098)"><svg viewBox="0 0 95.481 68.5935504" height="68.5935504" width="95.481"><g><svg viewBox="0 0 95.481 68.5935504" height="68.5935504" width="95.481"><g><svg viewBox="0 0 95.481 68.5935504" height="68.5935504" width="95.481"><g><svg viewBox="0 0 95.481 68.5935504" height="68.5935504" width="95.481"><g><svg viewBox="0 0 95.481 68.5935504" height="68.5935504" width="95.481"><g><svg viewBox="0 0 95.481 68.5935504" height="68.5935504" width="95.481"><g><svg xmlns="http://www.w3.org/2000/svg" xmlns:xlink="http://www.w3.org/1999/xlink" version="1.1" x="0" y="0" viewBox="0 14.08 100 71.84" enable-background="new 0 0 100 100" xml:space="preserve" height="68.5935504" width="95.481" class="icon-icon-0" data-fill-palette-color="accent" id="icon-0"><polygon points="93.844,43.76 52.389,70.388 52.389,85.92 100,55.314 " fill="#000000" data-fill-palette-color="accent"></polygon><polygon points="0,55.314 47.611,85.92 47.611,70.384 6.174,43.718 " fill="#000000" data-fill-palette-color="accent"></polygon><path d="M50 14.08L9.724 39.972 50 65.887l40.318-25.888L50 14.08zM50 30.034L29.95 42.929l-5.027-3.228L50 23.576l25.077 16.125-5.026 3.228L50 30.034z" fill="#000000" data-fill-palette-color="accent"></path></svg></g></svg></g></svg></g></svg></g></svg></g><g></g></svg></g><defs></defs></svg><rect width="95.481" height="68.5935504" fill="none" stroke="none" visibility="hidden"></rect></g></svg></g></svg>